<svg width="41" height="41" viewBox="0 0 41 41" fill="none" xmlns="http://www.w3.org/2000/svg">
<path d="M20.5 37.5833C29.9349 37.5833 37.5834 29.9349 37.5834 20.5C37.5834 11.0651 29.9349 3.41666 20.5 3.41666C11.0652 3.41666 3.41669 11.0651 3.41669 20.5C3.41669 29.9349 11.0652 37.5833 20.5 37.5833Z" stroke="black" stroke-width="2" stroke-linecap="round" stroke-linejoin="round"/>
<path d="M15.5287 15.375C15.9304 14.2333 16.7231 13.2705 17.7666 12.6573C18.81 12.044 20.0369 11.8198 21.2298 12.0245C22.4227 12.2291 23.5046 12.8493 24.2841 13.7752C25.0635 14.7011 25.4901 15.873 25.4883 17.0833C25.4883 20.5 20.3633 22.2083 20.3633 22.2083" stroke="black" stroke-width="2" stroke-linecap="round" stroke-linejoin="round"/>
<path d="M20.5 29.0417H20.5171" stroke="black" stroke-width="2" stroke-linecap="round" stroke-linejoin="round"/>
</svg>
