<svg width="37" height="37" viewBox="0 0 37 37" fill="none" xmlns="http://www.w3.org/2000/svg">
<path d="M30.8333 10.7917H16.9583" stroke="black" stroke-width="2" stroke-linecap="round" stroke-linejoin="round"/>
<path d="M21.5833 26.2083H7.70834" stroke="black" stroke-width="2" stroke-linecap="round" stroke-linejoin="round"/>
<path d="M26.2083 30.8333C28.7627 30.8333 30.8333 28.7626 30.8333 26.2083C30.8333 23.654 28.7627 21.5833 26.2083 21.5833C23.654 21.5833 21.5833 23.654 21.5833 26.2083C21.5833 28.7626 23.654 30.8333 26.2083 30.8333Z" stroke="black" stroke-width="2" stroke-linecap="round" stroke-linejoin="round"/>
<path d="M10.7917 15.4167C13.346 15.4167 15.4167 13.346 15.4167 10.7917C15.4167 8.23735 13.346 6.16667 10.7917 6.16667C8.23734 6.16667 6.16666 8.23735 6.16666 10.7917C6.16666 13.346 8.23734 15.4167 10.7917 15.4167Z" stroke="black" stroke-width="2" stroke-linecap="round" stroke-linejoin="round"/>
</svg>
