<svg width="41" height="41" viewBox="0 0 41 41" fill="none" xmlns="http://www.w3.org/2000/svg">
<path d="M20.8758 3.41666H20.1242C19.218 3.41666 18.349 3.77663 17.7082 4.41737C17.0675 5.05812 16.7075 5.92717 16.7075 6.83332V7.14082C16.7069 7.73998 16.5487 8.32844 16.2489 8.84717C15.949 9.3659 15.5181 9.79666 14.9992 10.0962L14.2646 10.5233C13.7452 10.8232 13.156 10.9811 12.5563 10.9811C11.9565 10.9811 11.3673 10.8232 10.8479 10.5233L10.5917 10.3867C9.80766 9.9344 8.87622 9.81171 8.00184 10.0455C7.12745 10.2793 6.38157 10.8505 5.92792 11.6337L5.55209 12.2829C5.09983 13.0669 4.97714 13.9984 5.21095 14.8727C5.44476 15.7471 6.01596 16.493 6.79917 16.9467L7.05542 17.1175C7.57181 17.4156 8.00119 17.8437 8.30088 18.3592C8.60058 18.8746 8.76015 19.4596 8.76375 20.0558V20.9271C8.76614 21.5291 8.60941 22.1211 8.30941 22.6431C8.00942 23.1651 7.57682 23.5986 7.05542 23.8996L6.79917 24.0533C6.01596 24.507 5.44476 25.2529 5.21095 26.1272C4.97714 27.0016 5.09983 27.9331 5.55209 28.7171L5.92792 29.3662C6.38157 30.1495 7.12745 30.7207 8.00184 30.9545C8.87622 31.1883 9.80766 31.0656 10.5917 30.6133L10.8479 30.4767C11.3673 30.1768 11.9565 30.0189 12.5563 30.0189C13.156 30.0189 13.7452 30.1768 14.2646 30.4767L14.9992 30.9037C15.5181 31.2033 15.949 31.6341 16.2489 32.1528C16.5487 32.6715 16.7069 33.26 16.7075 33.8592V34.1667C16.7075 35.0728 17.0675 35.9419 17.7082 36.5826C18.349 37.2234 19.218 37.5833 20.1242 37.5833H20.8758C21.782 37.5833 22.651 37.2234 23.2918 36.5826C23.9325 35.9419 24.2925 35.0728 24.2925 34.1667V33.8592C24.2931 33.26 24.4513 32.6715 24.7511 32.1528C25.051 31.6341 25.482 31.2033 26.0008 30.9037L26.7354 30.4767C27.2548 30.1768 27.844 30.0189 28.4438 30.0189C29.0435 30.0189 29.6327 30.1768 30.1521 30.4767L30.4083 30.6133C31.1923 31.0656 32.1238 31.1883 32.9982 30.9545C33.8726 30.7207 34.6184 30.1495 35.0721 29.3662L35.4479 28.7C35.9002 27.916 36.0229 26.9845 35.7891 26.1102C35.5552 25.2358 34.984 24.4899 34.2008 24.0362L33.9446 23.8996C33.4232 23.5986 32.9906 23.1651 32.6906 22.6431C32.3906 22.1211 32.2339 21.5291 32.2363 20.9271V20.0729C32.2339 19.4709 32.3906 18.8789 32.6906 18.3569C32.9906 17.8349 33.4232 17.4014 33.9446 17.1004L34.2008 16.9467C34.984 16.493 35.5552 15.7471 35.7891 14.8727C36.0229 13.9984 35.9002 13.0669 35.4479 12.2829L35.0721 11.6337C34.6184 10.8505 33.8726 10.2793 32.9982 10.0455C32.1238 9.81171 31.1923 9.9344 30.4083 10.3867L30.1521 10.5233C29.6327 10.8232 29.0435 10.9811 28.4438 10.9811C27.844 10.9811 27.2548 10.8232 26.7354 10.5233L26.0008 10.0962C25.482 9.79666 25.051 9.3659 24.7511 8.84717C24.4513 8.32844 24.2931 7.73998 24.2925 7.14082V6.83332C24.2925 5.92717 23.9325 5.05812 23.2918 4.41737C22.651 3.77663 21.782 3.41666 20.8758 3.41666Z" stroke="black" stroke-width="2" stroke-linecap="round" stroke-linejoin="round"/>
<path d="M20.5 25.625C23.3305 25.625 25.625 23.3305 25.625 20.5C25.625 17.6695 23.3305 15.375 20.5 15.375C17.6695 15.375 15.375 17.6695 15.375 20.5C15.375 23.3305 17.6695 25.625 20.5 25.625Z" stroke="black" stroke-width="2" stroke-linecap="round" stroke-linejoin="round"/>
</svg>
