<svg width="42" height="41" viewBox="0 0 42 41" fill="none" xmlns="http://www.w3.org/2000/svg">
<path d="M17.5833 3.41667H24.4167" stroke="black" stroke-width="2" stroke-linecap="round" stroke-linejoin="round"/>
<path d="M21 23.9167V17.0833" stroke="black" stroke-width="2" stroke-linecap="round" stroke-linejoin="round"/>
<path d="M7.33333 22.2083C7.75164 18.8873 9.3742 15.8352 11.8933 13.631C14.4124 11.4268 17.6528 10.2238 21 10.25C23.2107 10.2523 25.3878 10.7909 27.3445 11.8195C29.3013 12.8482 30.9794 14.3361 32.2347 16.1557C33.4901 17.9754 34.2853 20.0724 34.5522 22.2669C34.8191 24.4614 34.5496 26.6879 33.7669 28.7553C32.9842 30.8228 31.7117 32.6696 30.0584 34.1372C28.4052 35.6048 26.4206 36.6494 24.275 37.1815C22.1293 37.7136 19.8866 37.7173 17.7392 37.1922C15.5918 36.6671 13.6038 35.6289 11.9458 34.1667L7.33333 30.0667" stroke="black" stroke-width="2" stroke-linecap="round" stroke-linejoin="round"/>
<path d="M15.875 29.0417H7.33333V37.5833" stroke="black" stroke-width="2" stroke-linecap="round" stroke-linejoin="round"/>
</svg>
